<svg width="71" height="71" viewBox="0 0 71 71" fill="none" xmlns="http://www.w3.org/2000/svg">
<g filter="url(#filter0_d_277_829)">
<circle cx="35.5" cy="31.5" r="31.5" fill="#747272" fill-opacity="0.5" shape-rendering="crispEdges"/>
</g>
<path d="M52.2994 26.03C51.8794 24.73 50.8393 23.73 49.5093 23.37L42.8993 21.56L39.1393 15.83C38.3893 14.68 37.1194 14 35.7493 14C34.3793 14 33.1094 14.68 32.3594 15.83L28.5994 21.56L21.9894 23.37C20.6694 23.73 19.6294 24.73 19.1994 26.03C18.7794 27.33 19.0294 28.75 19.8894 29.82L24.1694 35.17L23.8493 42.01C23.7894 43.38 24.4093 44.68 25.5194 45.48C26.6294 46.28 28.0594 46.48 29.3394 45.99L35.7493 43.57L42.1593 45.99C42.6193 46.16 43.1094 46.25 43.5893 46.25C44.4494 46.25 45.2793 45.98 45.9693 45.47C47.0793 44.66 47.6993 43.37 47.6393 42L47.3193 35.16L51.5993 29.81C52.4594 28.74 52.7194 27.32 52.2894 26.02L52.2994 26.03ZM22.6194 27.63C22.4494 27.42 22.4994 27.2 22.5294 27.11C22.5594 27.02 22.6494 26.82 22.9094 26.74L30.6994 24.61L30.7894 24.58L35.2794 17.75C35.4293 17.52 35.6593 17.5 35.7393 17.5C35.8493 17.5 36.0593 17.53 36.2093 17.75L40.6994 24.58L48.5793 26.74C48.8393 26.81 48.9393 27.02 48.9593 27.11C48.9893 27.2 49.0394 27.42 48.8594 27.63L43.7493 34.01L44.1293 42.17C44.1393 42.44 43.9693 42.59 43.8993 42.65C43.8093 42.71 43.6193 42.81 43.3793 42.72L35.8193 39.87L35.7293 39.84L28.0794 42.73C27.8194 42.83 27.6294 42.71 27.5494 42.66C27.4794 42.61 27.3094 42.45 27.3194 42.18L27.6994 34.11V34.02L22.5894 27.64L22.6194 27.63Z" fill="white"/>
<defs>
<filter id="filter0_d_277_829" x="0" y="0" width="71" height="71" filterUnits="userSpaceOnUse" color-interpolation-filters="sRGB">
<feFlood flood-opacity="0" result="BackgroundImageFix"/>
<feColorMatrix in="SourceAlpha" type="matrix" values="0 0 0 0 0 0 0 0 0 0 0 0 0 0 0 0 0 0 127 0" result="hardAlpha"/>
<feOffset dy="4"/>
<feGaussianBlur stdDeviation="2"/>
<feComposite in2="hardAlpha" operator="out"/>
<feColorMatrix type="matrix" values="0 0 0 0 0 0 0 0 0 0 0 0 0 0 0 0 0 0 1 0"/>
<feBlend mode="normal" in2="BackgroundImageFix" result="effect1_dropShadow_277_829"/>
<feBlend mode="normal" in="SourceGraphic" in2="effect1_dropShadow_277_829" result="shape"/>
</filter>
</defs>
</svg>
