<svg width="59" height="67" viewBox="0 0 59 67" fill="none" xmlns="http://www.w3.org/2000/svg">
<g clip-path="url(#clip0_276_239)">
<path d="M51.91 26.8804C52.66 22.4104 53.16 18.8604 53.81 14.4904C54.14 12.1904 53.59 9.83041 52.24 7.94041C50.42 5.41041 47.49 3.51041 44.49 2.93041L31.94 0.500407C28.07 -0.249593 23.82 1.18041 21.28 4.10041C20.44 5.07041 19.84 6.22041 19.5 7.45041C18.54 11.3704 17.58 15.2904 16.5 19.0804C15.21 23.6504 17.74 28.4904 22.27 29.9004C22.67 30.0204 23.08 30.1204 23.5 30.1904L41.13 33.6104C43.79 34.2704 46 33.8904 47.8 32.8604C50 31.6004 51.49 29.3804 51.92 26.8804H51.91Z" fill="white"/>
<path d="M41.66 34.0502C41.46 34.0102 41.26 33.9702 41.05 33.9202L23.43 30.5002C23.01 30.4302 22.58 30.3302 22.16 30.2002C19.9 29.5002 18.03 27.9402 16.91 25.8302C15.79 23.7202 15.54 21.3002 16.18 19.0102C17.25 15.2202 18.23 11.2402 19.17 7.3902C19.54 6.0802 20.18 4.8802 21.02 3.9102C23.63 0.920199 28.03 -0.569801 31.99 0.200199L44.54 2.6302C47.64 3.2302 50.6 5.1502 52.48 7.7602C53.87 9.7002 54.45 12.1002 54.11 14.5302C53.95 15.5802 53.81 16.5702 53.66 17.5502C53.21 20.6202 52.78 23.5202 52.2 26.9302C51.75 29.5802 50.2 31.8402 47.93 33.1302C46.08 34.1902 43.97 34.4902 41.65 34.0402L41.66 34.0502ZM23.55 29.8902L41.19 33.3202C43.59 33.9102 45.76 33.6702 47.63 32.6002C49.74 31.4002 51.18 29.3002 51.59 26.8302C52.16 23.4302 52.59 20.5302 53.04 17.4602C53.18 16.4902 53.33 15.4902 53.49 14.4402C53.81 12.1702 53.27 9.9202 51.97 8.1202C50.18 5.6302 47.36 3.8102 44.41 3.2302L31.88 0.800199C28.12 0.0701991 23.96 1.4802 21.51 4.3002C20.73 5.2002 20.13 6.3202 19.79 7.5302C18.84 11.3902 17.87 15.3702 16.79 19.1702C16.18 21.3102 16.42 23.5702 17.47 25.5402C18.52 27.5102 20.25 28.9602 22.36 29.6102C22.75 29.7302 23.15 29.8202 23.55 29.8902Z" fill="black"/>
<path d="M46.16 18.4501C46.1 18.3001 46.1 18.1301 46.19 17.9901C46.41 17.6201 46.57 17.2001 46.66 16.7501L47.42 12.8501C47.89 10.4301 46.31 8.09008 43.89 7.62008L30.94 5.11008C28.52 4.64008 26.18 6.22008 25.71 8.64008L24.95 12.5401C24.86 12.9901 24.86 13.4301 24.92 13.8601C24.94 14.0201 24.89 14.1801 24.77 14.2901C24.22 14.8301 23.82 15.5301 23.66 16.3401L22.9 20.2401C22.43 22.6601 24.01 25.0001 26.43 25.4701L40.44 28.1901C42.86 28.6601 45.2 27.0801 45.67 24.6601L46.43 20.7601C46.59 19.9501 46.48 19.1501 46.17 18.4401L46.16 18.4501ZM29.49 9.38008C29.55 9.06008 29.87 8.85008 30.19 8.91008L43.14 11.4201C43.46 11.4801 43.67 11.8001 43.61 12.1201L42.96 15.4901C42.9 15.8101 42.58 16.0201 42.26 15.9601L29.31 13.4501C28.99 13.3901 28.78 13.0701 28.84 12.7501L29.49 9.38008ZM41.88 23.9301C41.82 24.2501 41.5 24.4601 41.18 24.4001L27.17 21.6801C26.85 21.6201 26.64 21.3001 26.7 20.9801L27.35 17.6101C27.41 17.2901 27.73 17.0801 28.05 17.1401L42.06 19.8601C42.38 19.9201 42.59 20.2401 42.53 20.5601L41.88 23.9301Z" fill="#231F20"/>
<path d="M47.8 32.7803C50.08 31.7104 51.29 29.1804 51.71 26.7204C52.45 22.3304 52.93 18.8504 53.57 14.5604C53.89 12.3004 53.34 9.98035 51.98 8.12035C51.04 6.84035 49.81 5.72035 48.42 4.86035C49.56 7.26035 50.71 11.1004 49.81 15.9404C48.25 24.3904 49.85 34.4504 34.48 31.9204L34.46 32.0404L43.53 33.8004C45.85 33.9804 47 33.1704 47.81 32.7904L47.8 32.7803Z" fill="#CCC5D1"/>
<path d="M51.13 35.8799C48.42 34.6199 45.8 33.8099 43.69 33.2999C43.19 33.1799 24.64 31.6199 24.64 31.6199C21.14 29.5999 10.16 24.2799 3.26001 32.2299C1.61001 34.1299 0.720006 36.6399 1.08001 39.1699C1.45001 41.7599 3.14001 44.6399 8.63001 45.2999C13.49 45.8799 17.05 44.9999 19.47 43.8799C18.64 49.0499 18.42 55.7199 19.96 63.6699C20.17 64.7299 21.02 65.4899 22.01 65.4899L29.64 65.2499C30.25 65.2499 30.74 64.6999 30.73 64.0299C30.7 62.0199 30.84 58.2099 32.36 58.0999C33.89 57.9899 34.03 61.8199 34 63.8499C33.99 64.5199 34.48 65.0699 35.09 65.0699H43.56C44.57 65.0699 45.41 64.2199 45.5 63.1099C45.67 61.0699 45.89 57.6099 45.84 53.5699C47.36 54.2699 49.24 54.5299 51.56 54.0599C62.3 51.8799 57.43 38.8099 51.13 35.8799Z" fill="white" stroke="black" stroke-width="2" stroke-miterlimit="10"/>
<path d="M20.59 40.7397C20.59 40.7397 13.38 45.6997 2.45001 41.7997C2.45001 41.7997 4.89001 45.5797 11.97 45.1597C17.58 44.8297 19.36 43.5397 19.97 43.3197L20.58 40.7397H20.59Z" fill="#CCC5D1"/>
<path d="M45.84 48.7197C45.84 48.7197 49.1 54.5797 55.87 51.3697C55.87 51.3697 51.84 55.7197 45.47 52.9297L45.84 48.7197Z" fill="#CCC5D1"/>
<path d="M26.58 64.91L22.39 65.07C22.39 65.07 20.75 65.47 20.33 63.53C20.33 63.53 17.36 50.52 20.58 40.75C20.58 40.75 19.95 59.58 22.6 62.83C24.37 65 26.57 64.92 26.57 64.92L26.58 64.91Z" fill="#CCC5D1"/>
<path d="M45.84 48.72C45.84 48.72 45.3 64.91 37.16 64.72C29.02 64.53 42.97 64.72 42.97 64.72C42.97 64.72 44.8 65.14 45.11 63.02L45.84 48.71V48.72Z" fill="#CCC5D1"/>
</g>
<defs>
<clipPath id="clip0_276_239">
<rect width="58.88" height="66.49" fill="white"/>
</clipPath>
</defs>
</svg>
