<svg width="70" height="67" viewBox="0 0 70 67" fill="none" xmlns="http://www.w3.org/2000/svg">
<g clip-path="url(#clip0_276_174)">
<path d="M68.16 31.6702C63.51 21.3402 48.63 30.1202 47.08 31.0702H28.45C27.6 30.8602 19.46 28.7102 18.24 23.7502C16.95 18.5202 8.68999 14.8202 2.91999 21.7002C-0.290007 25.5202 -1.98001 41.1702 19.04 42.5102C20.35 42.5902 21.52 42.6202 22.59 42.6002C21.55 47.8702 21.19 54.8202 22.98 63.2102C23.21 64.2702 24.15 65.0302 25.24 65.0302L33.65 64.7902C34.32 64.7902 34.86 64.2402 34.85 63.5702C34.81 61.5602 34.97 57.7502 36.65 57.6402C38.34 57.5302 38.49 61.3602 38.46 63.3902C38.45 64.0602 38.99 64.6102 39.66 64.6102H49C50.11 64.6102 51.04 63.7602 51.15 62.6502C51.49 59.0202 51.95 50.2602 50.65 41.9802C58.64 47.4002 72.31 40.8702 68.17 31.6702H68.16Z" fill="white" stroke="black" stroke-width="2" stroke-miterlimit="10"/>
<path d="M55.18 22.4001C55.07 17.8701 54.88 14.2901 54.69 9.88006C54.57 7.56006 53.59 5.35006 51.9 3.75006C49.63 1.61006 46.4 0.310059 43.34 0.310059H30.56C26.62 0.310059 22.71 2.52006 20.78 5.87006C20.14 6.98006 19.77 8.22006 19.67 9.50006C19.47 13.5301 19.27 17.5601 18.94 21.4901C18.54 26.2201 21.95 30.4901 26.67 31.0101C27.09 31.0601 27.51 31.0701 27.93 31.0601H45.89C48.63 31.2001 50.72 30.4201 52.29 29.0601C54.21 27.4001 55.25 24.9401 55.19 22.4001H55.18Z" fill="white"/>
<path d="M46.48 31.39C46.28 31.39 46.07 31.39 45.86 31.37H27.92C27.49 31.37 27.05 31.37 26.62 31.32C24.26 31.06 22.14 29.89 20.63 28.03C19.13 26.18 18.42 23.85 18.62 21.47C18.95 17.55 19.15 13.45 19.35 9.49C19.46 8.14 19.86 6.84 20.5 5.72C22.47 2.3 26.51 0 30.55 0H43.33C46.48 0 49.76 1.32 52.1 3.53C53.84 5.17 54.86 7.42 54.99 9.87C55.04 10.93 55.08 11.93 55.12 12.92C55.26 16.02 55.39 18.95 55.48 22.4C55.55 25.08 54.45 27.6 52.47 29.3C50.85 30.69 48.84 31.39 46.48 31.39ZM27.91 30.75H45.88C48.35 30.88 50.43 30.23 52.07 28.82C53.91 27.24 54.93 24.9 54.86 22.4C54.77 18.95 54.64 16.03 54.5 12.93C54.46 11.95 54.41 10.94 54.37 9.88C54.25 7.59 53.3 5.49 51.68 3.96C49.45 1.86 46.33 0.6 43.33 0.6H30.55C26.72 0.6 22.9 2.77 21.03 6.01C20.43 7.05 20.06 8.25 19.96 9.51C19.77 13.47 19.56 17.57 19.23 21.5C19.04 23.72 19.71 25.89 21.11 27.62C22.51 29.36 24.49 30.45 26.69 30.69C27.1 30.73 27.51 30.75 27.91 30.74V30.75Z" fill="black"/>
<path d="M47.93 15.22C47.84 15.09 47.82 14.92 47.87 14.77C48.01 14.36 48.09 13.92 48.09 13.47V9.50004C48.09 7.04004 46.09 5.04004 43.63 5.04004H30.43C27.97 5.04004 25.97 7.04004 25.97 9.50004V13.47C25.97 13.93 26.05 14.36 26.19 14.77C26.24 14.92 26.22 15.09 26.13 15.22C25.69 15.85 25.43 16.62 25.43 17.45V21.42C25.43 23.88 27.43 25.88 29.89 25.88H44.16C46.62 25.88 48.62 23.88 48.62 21.42V17.45C48.62 16.62 48.36 15.86 47.92 15.22H47.93ZM29.84 9.49004C29.84 9.16004 30.11 8.89004 30.44 8.89004H43.64C43.97 8.89004 44.24 9.16004 44.24 9.49004V12.92C44.24 13.25 43.97 13.52 43.64 13.52H30.44C30.11 13.52 29.84 13.25 29.84 12.92V9.49004ZM44.77 21.41C44.77 21.74 44.5 22.01 44.17 22.01H29.9C29.57 22.01 29.3 21.74 29.3 21.41V17.98C29.3 17.65 29.57 17.38 29.9 17.38H44.17C44.5 17.38 44.77 17.65 44.77 17.98V21.41Z" fill="#231F20"/>
<path d="M52.27 28.9799C54.3 27.4899 55.01 24.7799 54.95 22.2899C54.84 17.8399 54.65 14.3299 54.46 9.98994C54.34 7.70994 53.36 5.53994 51.67 3.96994C50.5 2.88994 49.08 2.02994 47.56 1.43994C49.14 3.57994 50.99 7.12994 51.04 12.0499C51.12 20.6399 54.6 30.2199 39.04 30.6599V30.7799H48.28C50.59 30.5099 51.56 29.4999 52.28 28.9699L52.27 28.9799Z" fill="#CCC5D1"/>
<path d="M29.55 64.5L25.61 64.61C25.61 64.61 23.71 64.84 23.32 63.06C23.32 63.06 20.36 52.33 23.09 42.25C23.09 42.25 23.03 59.08 25.76 62.32C27.59 64.49 29.55 64.49 29.55 64.49V64.5Z" fill="#CCC5D1"/>
<path d="M50.91 48.22C50.91 48.22 51 64.41 42.61 64.22H48.59C48.59 64.22 50.49 64.48 50.9 62.57L51.14 55.84C51.16 55.37 51.17 54.91 51.16 54.44L51.02 48.26L50.91 48.21V48.22Z" fill="#CCC5D1"/>
<path d="M48.89 36.8498C48.89 36.8498 57.48 44.7798 66.72 39.6398C66.72 39.6398 59.05 47.6198 50.21 41.1598L48.89 36.8398V36.8498Z" fill="#CCC5D1"/>
<path d="M5.12 20.0798C5.12 20.0798 -0.549995 27.0298 7.28 33.1898C15.11 39.3398 23.78 38.9398 23.78 38.9398L23.09 42.2598C23.09 42.2598 11.97 42.8698 6.2 38.0698C1.44 34.1198 1.33001 29.9698 1.45001 27.1698C1.57 24.3698 2.91 21.4998 5.12 20.0698V20.0798Z" fill="#CCC5D1"/>
</g>
<defs>
<clipPath id="clip0_276_174">
<rect width="69.93" height="66.02" fill="white"/>
</clipPath>
</defs>
</svg>
