<svg width="45" height="66" viewBox="0 0 45 66" fill="none" xmlns="http://www.w3.org/2000/svg">
<g clip-path="url(#clip0_276_186)">
<path d="M19.67 64.0601H12.23C11.65 64.0601 11.14 63.5801 11.02 62.9101C10.56 60.4001 9.76 53.8701 11.33 44.4701C12.89 35.1401 16.01 35.3201 16.01 35.3201H29.96C29.96 35.3201 35.61 41.8001 33.59 62.6601C33.53 63.3201 33.1 63.8401 32.53 63.8401H24.89C24.42 63.8401 24.03 63.4201 23.99 62.8801C23.86 61.2001 23.42 57.9101 21.98 58.0301C20.54 58.1501 20.5 61.2401 20.56 62.9501C20.58 63.5601 20.17 64.0601 19.66 64.0601H19.67Z" fill="white" stroke="black" stroke-width="2" stroke-miterlimit="10"/>
<path d="M14.31 37.2102C16.42 39.8402 15.74 44.0702 13.06 46.1602C10.38 48.2402 6.2 48.0702 3.53 45.9902C0.850005 43.9002 -0.249995 40.1902 0.590005 36.9502C1.43 33.7102 4.05 31.0402 7.22 29.7702L36.56 29.6602L36.89 29.7902C40.07 31.0602 43.02 33.7402 43.86 36.9802C44.7 40.2202 43.6 43.9302 40.92 46.0202C38.24 48.1102 34.07 48.2802 31.39 46.1902C28.71 44.1102 28.03 39.8802 30.14 37.2402" fill="white"/>
<path d="M14.31 37.21C15.4 38.52 15.8 40.32 15.55 41.99C14.72 47.78 7.72 49.46 3.39 46.2C0.590003 44.07 -0.579997 40.21 0.290003 36.83C1.17 33.44 3.97 30.58 7.23 29.4C14.61 29.37 29.34 29.24 36.71 29.31C36.98 29.42 37.35 29.57 37.61 29.69C40.47 31.03 43.04 33.36 44.04 36.42C45.1 39.8 44.04 43.77 41.3 46.03C38.59 48.26 34.37 48.53 31.51 46.45C29.39 44.92 28.4 42.04 29.01 39.52C29.21 38.69 29.59 37.89 30.14 37.24C29.62 37.92 29.27 38.71 29.1 39.54C28.59 42 29.59 44.78 31.69 46.21C34.44 48.11 38.46 47.78 40.97 45.64C43.49 43.5 44.45 39.75 43.41 36.63C42.52 33.98 40.31 31.91 37.86 30.64C37.51 30.46 37.09 30.28 36.73 30.13L36.43 30.01L36.57 30.04C29.26 30.09 14.54 30.14 7.23 30.15C4.6 31.32 1.85 33.58 0.920003 37.01C0.0600026 40.14 1.13 43.78 3.7 45.81C6.25 47.82 10.22 48.05 12.89 46.12C15.59 44.18 16.4 39.91 14.32 37.23L14.31 37.21Z" fill="black"/>
<path d="M31.96 36.04C31.96 36.04 28.41 43.78 36.37 44.86C38.66 45.17 40.98 44.37 42.5 42.63C43.43 41.57 44.14 40.07 44.05 38.02C44.05 38.02 44.39 47.16 35.88 47.51C35.55 47.52 35.22 47.49 34.9 47.43C33.45 47.16 30.17 46.59 29.1 42.42C27.79 37.31 31.95 36.04 31.95 36.04H31.96Z" fill="#CCC5D1"/>
<path d="M12.45 36.0398C12.45 36.0398 16 43.7798 8.04 44.8598C5.75 45.1698 3.43 44.3698 1.91 42.6298C0.980001 41.5698 0.630001 40.0898 0.710001 38.0298C0.710001 38.0298 -0.429999 46.6798 8.52 47.4998C8.85 47.5298 9.18 47.4798 9.5 47.4198C10.95 47.1498 14.23 46.5798 15.3 42.4098C16.61 37.2998 12.45 36.0298 12.45 36.0298V36.0398Z" fill="#CCC5D1"/>
<path d="M39.74 22.4001C39.63 17.8701 39.44 14.2901 39.25 9.88006C39.13 7.56006 38.15 5.35006 36.46 3.75006C34.19 1.61006 30.96 0.310059 27.9 0.310059H15.12C11.18 0.310059 7.27001 2.52006 5.34001 5.87006C4.70001 6.98006 4.33001 8.22006 4.23001 9.50006C4.03001 13.5301 3.83001 17.5601 3.50001 21.4901C3.10001 26.2201 6.51001 30.4901 11.23 31.0101C11.65 31.0601 12.07 31.0701 12.49 31.0601H30.45C33.19 31.2001 35.28 30.4201 36.85 29.0601C38.77 27.4001 39.81 24.9401 39.75 22.4001H39.74Z" fill="white"/>
<path d="M31.05 31.39C30.85 31.39 30.64 31.39 30.43 31.37H12.49C12.06 31.37 11.62 31.37 11.19 31.32C8.83 31.06 6.71 29.89 5.2 28.03C3.7 26.18 2.99 23.85 3.19 21.47C3.52 17.55 3.72 13.45 3.92 9.49C4.03 8.14 4.43 6.84 5.07 5.72C7.04 2.3 11.08 0 15.12 0H27.9C31.05 0 34.33 1.32 36.67 3.53C38.41 5.17 39.43 7.42 39.56 9.87C39.61 10.93 39.65 11.93 39.69 12.92C39.83 16.02 39.96 18.95 40.05 22.4C40.12 25.08 39.02 27.6 37.04 29.3C35.42 30.69 33.41 31.39 31.05 31.39ZM12.48 30.75H30.46C32.93 30.88 35.01 30.23 36.65 28.83C38.49 27.25 39.51 24.91 39.44 22.41C39.35 18.96 39.22 16.04 39.08 12.94C39.04 11.96 38.99 10.95 38.95 9.89C38.83 7.6 37.88 5.5 36.26 3.97C34.03 1.87 30.91 0.61 27.91 0.61H15.13C11.3 0.61 7.48 2.78 5.61 6.02C5.01 7.06 4.64 8.26 4.54 9.52C4.35 13.48 4.14 17.58 3.81 21.51C3.62 23.73 4.29 25.9 5.69 27.63C7.09 29.37 9.07 30.46 11.27 30.7C11.68 30.74 12.09 30.76 12.49 30.75H12.48Z" fill="black"/>
<path d="M32.5 15.22C32.41 15.09 32.39 14.92 32.44 14.77C32.58 14.36 32.66 13.92 32.66 13.47V9.50004C32.66 7.04004 30.66 5.04004 28.2 5.04004H15C12.54 5.04004 10.54 7.04004 10.54 9.50004V13.47C10.54 13.93 10.62 14.36 10.76 14.77C10.81 14.92 10.79 15.09 10.7 15.22C10.26 15.85 10 16.62 10 17.45V21.42C10 23.88 12 25.88 14.46 25.88H28.73C31.19 25.88 33.19 23.88 33.19 21.42V17.45C33.19 16.62 32.93 15.86 32.49 15.22H32.5ZM14.41 9.49004C14.41 9.16004 14.68 8.89004 15.01 8.89004H28.21C28.54 8.89004 28.81 9.16004 28.81 9.49004V12.92C28.81 13.25 28.54 13.52 28.21 13.52H15.01C14.68 13.52 14.41 13.25 14.41 12.92V9.49004ZM29.33 21.41C29.33 21.74 29.06 22.01 28.73 22.01H14.46C14.13 22.01 13.86 21.74 13.86 21.41V17.98C13.86 17.65 14.13 17.38 14.46 17.38H28.73C29.06 17.38 29.33 17.65 29.33 17.98V21.41Z" fill="#231F20"/>
<path d="M36.84 28.9799C38.87 27.4899 39.58 24.7799 39.52 22.2899C39.41 17.8399 39.22 14.3299 39.03 9.98994C38.91 7.70994 37.93 5.53994 36.24 3.96994C35.07 2.88994 33.65 2.02994 32.13 1.43994C33.71 3.57994 35.56 7.12994 35.61 12.0499C35.69 20.6399 39.17 30.2199 23.61 30.6599V30.7799H32.85C35.16 30.5199 36.13 29.4999 36.85 28.9699L36.84 28.9799Z" fill="#CCC5D1"/>
<path d="M12.16 46.9099C12.16 46.9099 10.87 57.9599 13.3 61.8699C14.51 63.8099 18.86 63.6299 18.86 63.6299L12.26 63.7099C12.26 63.7099 11.56 63.7799 11.35 62.5399C10.88 59.8299 10.35 53.0999 11.35 47.2899C11.35 47.2899 11.78 47.1099 12.18 46.8999L12.16 46.9099Z" fill="#CCC5D1"/>
<path d="M32.23 46.9099C32.23 46.9099 34.37 62.8499 28.85 63.4399H32.48C32.48 63.4399 33.14 63.5399 33.22 62.4399C33.3 61.3999 34.39 52.1299 33.29 47.3899C33.29 47.3899 32.65 47.1799 32.22 46.8999L32.23 46.9099Z" fill="#CCC5D1"/>
</g>
<defs>
<clipPath id="clip0_276_186">
<rect width="44.44" height="65.06" fill="white"/>
</clipPath>
</defs>
</svg>
