<svg width="54" height="67" viewBox="0 0 54 67" fill="none" xmlns="http://www.w3.org/2000/svg">
<g clip-path="url(#clip0_276_202)">
<path d="M51.72 40.8801C47.64 31.2101 38.33 30.1501 38.33 30.1501V30.3001C36.85 29.7401 34.98 30.1501 34.98 30.1501L23.34 30.0001C23.34 30.0001 22.53 29.6701 21.44 30.1601C19.21 27.0701 10.68 16.4901 3.01 23.7501C-3.7 30.1101 7.81 43.5801 16.54 40.8201C14.98 50.9501 16.99 61.1201 17.72 64.5601C17.88 65.2901 18.37 65.7801 18.92 65.7401L27.49 65.1501C27.91 65.1201 28.22 64.6101 28.17 64.0301C28.02 62.3201 27.88 59.1701 28.94 59.2101C30.02 59.2501 30.39 62.5001 30.51 64.1601C30.55 64.6901 30.88 65.0801 31.26 65.0601L39.93 65.1001C42.78 62.9301 39.93 49.4301 39.93 49.4301C39.93 49.4301 39.95 49.1301 39.98 48.6201C41.7 54.5801 56.67 52.6401 51.7 40.8801H51.72Z" fill="white" stroke="black" stroke-width="2" stroke-miterlimit="10"/>
<path d="M1.91 25.73C1.91 25.73 1.88 34 8.45 36.25C17.65 39.4 19.52 34.8 19.52 34.8L16.95 40.31C16.95 40.31 11.69 42.55 6.26 37.63C1.64 33.43 0.579999 28.57 1.91 25.73Z" fill="#CCC5D1"/>
<path d="M40.89 44.0801L40.27 45.2801C39.64 46.4901 39.26 47.8401 39.14 49.2401C38.96 51.4901 38.76 55.0101 39.05 57.4401C39.51 61.2901 38.39 63.9601 36.78 64.3401L39.83 64.1101C39.83 64.1101 41.51 63.0201 40.6 55.3901C40.37 53.4901 39.91 50.5401 39.85 49.2001C39.84 48.9101 39.84 48.6201 39.85 48.3401C40.35 49.3401 41.58 50.9601 44.47 51.4401C49.48 52.2601 51.51 48.5101 51.51 48.5101C44.4 52.8201 40.89 44.0801 40.89 44.0801Z" fill="#CCC5D1"/>
<path d="M16.95 40.3003C16.95 40.3003 17.1 55.9203 19.88 60.7103C22.66 65.5003 26.14 64.7803 26.14 64.7803L19.54 65.2903C19.54 65.2903 18.39 65.8003 18.06 64.3503C17.73 62.9003 15.11 51.5303 16.94 40.3003H16.95Z" fill="#CCC5D1"/>
<path d="M47.11 22.4001C47 17.8701 46.81 14.2901 46.62 9.88006C46.5 7.56006 45.52 5.35006 43.83 3.75006C41.56 1.61006 38.33 0.310059 35.27 0.310059H22.49C18.55 0.310059 14.64 2.52006 12.71 5.87006C12.07 6.98006 11.7 8.22006 11.6 9.50006C11.4 13.5301 11.2 17.5601 10.87 21.4901C10.47 26.2201 13.88 30.4901 18.6 31.0101C19.02 31.0601 19.44 31.0701 19.86 31.0601H37.82C40.56 31.2001 42.65 30.4201 44.22 29.0601C46.14 27.4001 47.18 24.9401 47.12 22.4001H47.11Z" fill="white"/>
<path d="M38.42 31.39C38.22 31.39 38.01 31.39 37.8 31.37H19.86C19.43 31.37 18.99 31.37 18.56 31.32C16.2 31.06 14.08 29.89 12.57 28.03C11.07 26.18 10.36 23.85 10.56 21.47C10.89 17.55 11.09 13.45 11.29 9.49C11.4 8.14 11.8 6.84 12.44 5.72C14.41 2.3 18.45 0 22.49 0H35.27C38.42 0 41.7 1.32 44.04 3.53C45.78 5.17 46.8 7.42 46.93 9.87C46.98 10.93 47.02 11.93 47.06 12.92C47.2 16.02 47.33 18.95 47.42 22.4C47.49 25.08 46.39 27.6 44.41 29.3C42.79 30.69 40.78 31.39 38.42 31.39ZM19.85 30.75H37.83C40.3 30.88 42.38 30.23 44.02 28.83C45.86 27.25 46.88 24.91 46.81 22.41C46.72 18.96 46.59 16.04 46.45 12.94C46.41 11.96 46.36 10.95 46.32 9.89C46.2 7.6 45.25 5.5 43.63 3.97C41.4 1.87 38.28 0.61 35.28 0.61H22.5C18.67 0.61 14.85 2.78 12.98 6.02C12.38 7.06 12.01 8.26 11.91 9.52C11.72 13.48 11.51 17.58 11.18 21.51C10.99 23.73 11.66 25.9 13.06 27.63C14.46 29.37 16.44 30.46 18.64 30.7C19.05 30.74 19.46 30.76 19.86 30.75H19.85Z" fill="black"/>
<path d="M39.87 15.22C39.78 15.09 39.76 14.92 39.81 14.77C39.95 14.36 40.03 13.92 40.03 13.47V9.50004C40.03 7.04004 38.03 5.04004 35.57 5.04004H22.37C19.91 5.04004 17.91 7.04004 17.91 9.50004V13.47C17.91 13.93 17.99 14.36 18.13 14.77C18.18 14.92 18.16 15.09 18.07 15.22C17.63 15.85 17.37 16.62 17.37 17.45V21.42C17.37 23.88 19.37 25.88 21.83 25.88H36.1C38.56 25.88 40.56 23.88 40.56 21.42V17.45C40.56 16.62 40.3 15.86 39.86 15.22H39.87ZM21.78 9.49004C21.78 9.16004 22.05 8.89004 22.38 8.89004H35.58C35.91 8.89004 36.18 9.16004 36.18 9.49004V12.92C36.18 13.25 35.91 13.52 35.58 13.52H22.38C22.05 13.52 21.78 13.25 21.78 12.92V9.49004ZM36.7 21.41C36.7 21.74 36.43 22.01 36.1 22.01H21.83C21.5 22.01 21.23 21.74 21.23 21.41V17.98C21.23 17.65 21.5 17.38 21.83 17.38H36.1C36.43 17.38 36.7 17.65 36.7 17.98V21.41Z" fill="#231F20"/>
<path d="M44.21 28.9799C46.24 27.4899 46.95 24.7799 46.89 22.2899C46.78 17.8399 46.59 14.3299 46.4 9.98994C46.28 7.70994 45.3 5.53994 43.61 3.96994C42.44 2.88994 41.02 2.02994 39.5 1.43994C41.08 3.57994 42.93 7.12994 42.98 12.0499C43.06 20.6399 46.54 30.2199 30.98 30.6599V30.7799H40.22C42.53 30.5199 43.5 29.4999 44.22 28.9699L44.21 28.9799Z" fill="#CCC5D1"/>
</g>
<defs>
<clipPath id="clip0_276_202">
<rect width="53.73" height="66.75" fill="white"/>
</clipPath>
</defs>
</svg>
