<svg width="73" height="70" viewBox="0 0 73 70" fill="none" xmlns="http://www.w3.org/2000/svg">
<g clip-path="url(#clip0_276_226)">
<path d="M63.56 37.0899C60.48 35.6999 57.5 34.8099 55.1 34.2499C53.82 33.9499 52.58 34.2799 51.64 35.0099C51.34 34.7199 51.01 34.4699 50.66 34.2699L38.04 30.2299C38.04 30.2299 28.41 27.1699 25.2 26.2799C21.99 25.3899 17.47 19.1299 17.47 19.1299C17.47 19.1299 18.88 14.5999 16.22 13.7499C13.56 12.8999 12.4 17.7199 12.4 17.7199C12.4 17.7199 6.49 14.4099 2.73 20.2099C-1.04 26.0099 0.620002 38.6199 15.16 41.6199C19.63 42.5399 23.31 42.8399 26.25 42.8199C25.9 45.4799 25.89 48.1599 26.55 50.3799C26.55 50.3799 20.71 46.0999 18.24 53.5099C16.21 59.5999 20.3 65.7699 21.82 67.7699C22.14 68.1899 22.63 68.4399 23.16 68.4399H33.39C34.06 68.4399 34.65 68.0299 34.89 67.3999C35.39 66.0999 36.13 63.6999 36.13 60.8299C36.13 60.8299 36.26 59.5099 37.74 60.2499C39.22 60.9899 40.13 62.2599 40.13 62.2599C40.13 62.2599 40.87 68.0599 42.18 68.4299H54.02C54.83 68.4299 55.54 67.8799 55.74 67.0899C56.23 65.0799 56.93 60.9499 56.06 55.7699C58 57.1299 60.6 57.8299 64.05 57.1499C76.25 54.7399 70.72 40.3299 63.56 37.0999V37.0899Z" fill="white" stroke="black" stroke-width="2" stroke-miterlimit="10"/>
<path d="M61.26 26.8799C62.01 22.4099 62.51 18.8599 63.16 14.4899C63.49 12.1899 62.94 9.82992 61.59 7.93992C59.77 5.40992 56.84 3.50992 53.84 2.92992L41.29 0.499919C37.42 -0.250081 33.17 1.17992 30.63 4.09992C29.79 5.06992 29.19 6.21992 28.85 7.44992C27.89 11.3699 26.93 15.2899 25.85 19.0799C24.56 23.6499 27.09 28.4899 31.62 29.8999C32.02 30.0199 32.43 30.1199 32.85 30.1899L50.48 33.6099C53.14 34.2699 55.35 33.8899 57.15 32.8599C59.35 31.5999 60.84 29.3799 61.27 26.8799H61.26Z" fill="white"/>
<path d="M51.02 34.05C50.82 34.01 50.62 33.97 50.41 33.92L32.79 30.5C32.37 30.43 31.94 30.33 31.52 30.2C29.26 29.5 27.39 27.94 26.27 25.83C25.15 23.72 24.9 21.3 25.54 19.01C26.61 15.22 27.59 11.24 28.53 7.39002C28.9 6.08002 29.54 4.88002 30.38 3.91002C32.97 0.930019 37.37 -0.559981 41.33 0.210019L53.88 2.64002C56.98 3.24002 59.94 5.16002 61.82 7.77002C63.21 9.71002 63.79 12.11 63.45 14.54C63.29 15.59 63.15 16.58 63 17.56C62.55 20.63 62.12 23.53 61.54 26.94C61.09 29.59 59.54 31.85 57.27 33.14C55.42 34.2 53.31 34.5 50.99 34.05H51.02ZM32.9 29.89L50.54 33.32C52.94 33.91 55.11 33.67 56.98 32.6C59.09 31.4 60.53 29.3 60.94 26.83C61.51 23.43 61.94 20.53 62.39 17.46C62.53 16.49 62.68 15.49 62.84 14.44C63.16 12.17 62.62 9.92002 61.32 8.12002C59.53 5.63002 56.71 3.81002 53.76 3.23002L41.21 0.800019C37.45 0.0700189 33.29 1.48002 30.84 4.30002C30.06 5.20002 29.46 6.32002 29.12 7.53002C28.17 11.39 27.2 15.37 26.12 19.17C25.51 21.31 25.75 23.57 26.8 25.54C27.85 27.51 29.58 28.96 31.69 29.61C32.08 29.73 32.48 29.82 32.88 29.89H32.9Z" fill="black"/>
<path d="M55.52 18.4501C55.46 18.3001 55.46 18.1301 55.55 17.9901C55.77 17.6201 55.93 17.2001 56.02 16.7501L56.78 12.8501C57.25 10.4301 55.67 8.09008 53.25 7.62008L40.3 5.11008C37.88 4.64008 35.54 6.22008 35.07 8.64008L34.31 12.5401C34.22 12.9901 34.22 13.4301 34.28 13.8601C34.3 14.0201 34.25 14.1801 34.13 14.2901C33.58 14.8301 33.18 15.5301 33.02 16.3401L32.26 20.2401C31.79 22.6601 33.37 25.0001 35.79 25.4701L49.8 28.1901C52.22 28.6601 54.56 27.0801 55.03 24.6601L55.79 20.7601C55.95 19.9501 55.84 19.1501 55.53 18.4401L55.52 18.4501ZM38.85 9.38008C38.91 9.06008 39.23 8.85008 39.55 8.91008L52.5 11.4201C52.82 11.4801 53.03 11.8001 52.97 12.1201L52.32 15.4901C52.26 15.8101 51.94 16.0201 51.62 15.9601L38.67 13.4501C38.35 13.3901 38.14 13.0701 38.2 12.7501L38.85 9.38008ZM51.23 23.9301C51.17 24.2501 50.85 24.4601 50.53 24.4001L36.52 21.6801C36.2 21.6201 35.99 21.3001 36.05 20.9801L36.7 17.6101C36.76 17.2901 37.08 17.0801 37.4 17.1401L51.41 19.8601C51.73 19.9201 51.94 20.2401 51.88 20.5601L51.23 23.9301Z" fill="#231F20"/>
<path d="M57.16 32.7799C59.44 31.7099 60.65 29.1799 61.07 26.7199C61.81 22.3299 62.29 18.8499 62.93 14.5599C63.25 12.2999 62.7 9.97986 61.34 8.11986C60.4 6.83986 59.17 5.71986 57.78 4.85986C58.92 7.25986 60.07 11.0999 59.17 15.9399C57.61 24.3899 59.21 34.4499 43.84 31.9199L43.82 32.0399L52.89 33.7999C55.21 33.9799 56.36 33.1699 57.17 32.7899L57.16 32.7799Z" fill="#CCC5D1"/>
<path d="M54.89 54.6001C54.89 54.6001 57.17 68.1601 44.09 68.0201L53.45 68.0401C53.45 68.0401 55.1 68.4201 55.43 66.5701C55.8 64.5201 56.74 59.2901 55.43 54.8401L54.88 54.6001H54.89Z" fill="#CCC5D1"/>
<path d="M27.22 51.4498C27.22 51.4498 24.16 47.9998 20.53 50.3198C16.9 52.6398 17.11 61.2498 21.69 67.0598C21.69 67.0598 22.2 67.9598 23.04 68.0198C23.88 68.0798 26.62 68.0198 26.62 68.0198C26.62 68.0198 14.83 51.7098 27.23 51.4498H27.22Z" fill="#CCC5D1"/>
<path d="M54.48 48.7898C54.48 48.7898 58.9 56.1198 68.33 54.8798C68.33 54.8798 62.04 59.9998 54.89 54.5898L54.48 48.7798V48.7898Z" fill="#CCC5D1"/>
<path d="M4.17 18.96C4.17 18.96 1.45 28.93 8.55 32.98C15.64 37.02 27.22 38.19 27.22 38.19L26.6 42.45C26.6 42.45 14.97 42.78 7.69 38.25C1.85 34.62 -1.6 24.12 4.16 18.97L4.17 18.96Z" fill="#CCC5D1"/>
<path d="M14.22 18.76C14.22 18.76 14.18 14.25 15.86 14.06C15.86 14.06 13.8 13.22 12.67 18.25L14.22 18.75V18.76Z" fill="#CCC5D1"/>
</g>
<defs>
<clipPath id="clip0_276_226">
<rect width="72.24" height="69.43" fill="white"/>
</clipPath>
</defs>
</svg>
